<?xml version="1.0" standalone="no"?>
<!DOCTYPE svg PUBLIC "-//W3C//DTD SVG 1.1//EN" "http://www.w3.org/Graphics/SVG/1.1/DTD/svg11.dtd" >
<!--
2013-9-30: Created.
-->
<svg>
<metadata>
Created by iconfont
</metadata>
<defs>

<font id="iconfont" horiz-adv-x="1024" >
  <font-face
    font-family="iconfont"
    font-weight="500"
    font-stretch="normal"
    units-per-em="1024"
    ascent="896"
    descent="-128"
  />
    <missing-glyph />
    
    <glyph glyph-name="fanhuidingbu" unicode="&#59047;" d="M822.361947 311.716598 534.512241 599.566304c-12.381733 12.381733-32.438093 12.381733-44.819826 0L201.740382 311.511942c-12.381733-12.381733-12.381733-32.438093 0-44.819826 6.139702-6.139702 14.325972-9.311882 22.409913-9.311882s16.167882 3.069851 22.409913 9.311882L480.278205 500.512441 480.278205 22.843609c0-17.498151 14.223643-31.721795 31.721795-31.721795s31.721795 14.223643 31.721795 31.721795L543.721795 500.717098l233.820326-233.820326c12.381733-12.381733 32.438093-12.381733 44.819826 0C834.743679 279.278505 834.743679 299.334866 822.361947 311.716598z"  horiz-adv-x="1024" />

    
    <glyph glyph-name="dingzhi" unicode="&#58917;" d="M251.219 298.236c-2.385 0-4.845 0.465-7.307 1.38-11.07 3.92-16.76 16.145-12.762 27.215l120.555 332.369c2.305 6.457 7.765 11.455 14.375 13.3L951.848 834.88c9.61 2.61 19.225-1.465 24.065-9.767 4.845-8.38 3.46-18.99-3.305-25.83l-186.21-186.137c-8.305-8.302-21.83-8.302-30.22 0-8.375 8.305-8.295 21.837 0 30.215l128.94 128.857-497.049-137.93-116.86-321.982C268.209 303.616 259.907 298.236 251.219 298.236zM462.951 86.507c-8.682 0-16.912 5.375-20.062 14.065-4.077 11.07 1.612 23.365 12.76 27.29l321.989 116.94 137.695 497.051L786.478 612.996c-8.31-8.305-21.84-8.305-30.22 0-8.375 8.302-8.295 21.832 0 30.212L942.473 829.34c6.84 6.845 17.53 8.23 25.83 3.307 8.38-4.92 12.455-14.837 9.765-24.14L815.763 222.737c-1.84-6.685-6.84-11.995-13.295-14.375L470.256 87.807C467.874 86.957 465.334 86.507 462.951 86.507zM563.439 310.846c-29.215 0-56.587 11.375-77.192 31.985-20.677 20.6-31.977 47.972-31.977 77.107 0 29.142 11.3 56.587 31.977 77.195 41.212 41.285 113.092 41.285 154.302 0 42.595-42.517 42.595-111.792 0.08-154.382C619.948 322.221 592.578 310.846 563.439 310.846zM563.439 486.443c-17.76 0-34.445-6.92-46.975-19.45-12.685-12.607-19.605-29.212-19.605-47.055 0-17.68 6.92-34.442 19.53-46.972 25.06-25.145 68.885-25.145 94.025 0 25.905 25.91 25.83 68.117-0.075 94.105C597.803 479.523 581.123 486.443 563.439 486.443zM438.966-87.103c-27.525 0-53.51 10.84-72.962 30.37L86.612 222.507c-19.53 19.53-30.292 45.36-30.292 73.035 0 27.605 10.762 53.515 30.292 72.965 39.055 38.98 106.942 38.905 145.77 0l279.469-279.469c19.452-19.45 30.292-45.36 30.292-72.965 0-27.445-10.765-53.35-30.215-72.955C492.401-76.338 466.489-87.103 438.966-87.103zM159.575 355.976c-16.147 0-31.37-6.305-42.822-17.685-11.38-11.46-17.685-26.68-17.685-42.825s6.305-31.365 17.607-42.825l279.467-279.389c22.91-22.91 62.737-22.835 85.57-0.08 23.607 23.685 23.607 62.045-0.077 85.575L202.244 338.291C190.864 349.746 175.642 355.976 159.575 355.976z"  horiz-adv-x="1024" />

    
    <glyph glyph-name="jiankuohaoyuanyoufill" unicode="&#58950;" d="M512 895.000976C229.475902 895.000976 0.499512 666.024585 0.499512 383.500488s228.97639-511.500488 511.500488-511.500488 511.500488 228.97639 511.500488 511.500488S794.524098 895.000976 512 895.000976zM681.334634 358.325073l-235.569951-220.78439c-14.485854-13.586732-37.26361-12.887415-50.850341 1.598439-13.586732 14.485854-12.887415 37.26361 1.598439 50.850341L604.110049 384.499512 396.612683 579.109463c-14.485854 13.586732-15.185171 36.364488-1.598439 50.850341 13.586732 14.485854 36.364488 15.185171 50.850341 1.598439l235.569951-220.78439c7.192976-6.693463 11.288976-16.184195 11.288976-26.174439S688.627512 365.018537 681.334634 358.325073z"  horiz-adv-x="1024" />

    
    <glyph glyph-name="caidan" unicode="&#59097;" d="M85.333333 661.333333l853.333333 0c23.466667 0 42.666667 19.2 42.666667 42.666667 0 23.466667-19.2 42.666667-42.666667 42.666667L85.333333 746.666667C61.866667 746.666667 42.666667 727.466667 42.666667 704 42.666667 680.533333 61.866667 661.333333 85.333333 661.333333zM938.666667 426.666667 85.333333 426.666667c-23.466667 0-42.666667-19.2-42.666667-42.666667 0-23.466667 19.2-42.666667 42.666667-42.666667l853.333333 0c23.466667 0 42.666667 19.2 42.666667 42.666667C981.333333 407.466667 962.133333 426.666667 938.666667 426.666667zM938.666667 106.666667 85.333333 106.666667c-23.466667 0-42.666667-19.2-42.666667-42.666667 0-23.466667 19.2-42.666667 42.666667-42.666667l853.333333 0c23.466667 0 42.666667 19.2 42.666667 42.666667C981.333333 87.466667 962.133333 106.666667 938.666667 106.666667z"  horiz-adv-x="1024" />

    
    <glyph glyph-name="weixin-copy" unicode="&#58887;" d="M669.78 531.042c10.311 0 20.463-0.789 30.671-1.9-27.48 127.95-164.244 223.014-320.416 223.014-174.565 0-317.555-118.943-317.555-270.064 0-87.201 47.548-158.806 127.064-214.443l-31.742-95.484 111.032 55.621c39.702-7.798 71.557-15.874 111.202-15.874 9.981 0 19.851 0.452 29.606 1.178-6.172 21.254-9.812 43.457-9.812 66.626 0.057 138.731 119.161 251.325 269.951 251.325v0zM499.083 617.117c23.999 0 39.759-15.759 39.759-39.637 0-23.783-15.759-39.703-39.759-39.703-23.726 0-47.605 15.921-47.605 39.703-0 23.942 23.824 39.637 47.605 39.637v0zM276.858 537.776c-23.838 0-47.84 15.921-47.84 39.703 0 23.878 24.001 39.637 47.84 39.637 23.822 0 39.645-15.694 39.645-39.637 0-23.783-15.823-39.703-39.645-39.703v0zM959.687 283.521c0 126.95-127.066 230.427-269.782 230.427-151.121 0-270.056-103.524-270.056-230.427 0-127.291 118.992-230.412 270.056-230.412 31.627 0 63.54 7.912 95.274 15.871l87.087-47.774-23.894 79.403c63.765 47.887 111.315 111.304 111.315 182.911v0zM602.315 323.286c-15.756 0-31.742 15.694-31.742 31.742 0 15.807 15.985 31.727 31.742 31.727 24.112 0 39.76-15.92 39.76-31.727-0.001-16.047-15.647-31.742-39.76-31.742v0zM776.994 323.286c-15.646 0-31.573 15.694-31.573 31.742 0 15.807 15.87 31.727 31.573 31.727 23.887 0 39.757-15.92 39.757-31.727-0.001-16.047-15.87-31.742-39.757-31.742v0zM776.994 323.286z"  horiz-adv-x="1024" />

    
    <glyph glyph-name="zhengque" unicode="&#58992;" d="M998.8 623.1l-166.7 129-103.7-104 0 16.5L54.5 664.6l0-673.9 36.2 0 0-17.2 657 0 0 442L998.8 623.1zM705.7 13.4l-615 0 0 0L77.2 13.4 77.2 641.9l628.4 0 0-16.5L342 260.6l-55.1 156.6L90.7 389.6l213.6-340.7 401.4 331.8L705.7 13.4z"  horiz-adv-x="1024" />

    
    <glyph glyph-name="dianhua2" unicode="&#59152;" d="M393.395823 394.211252c-8.394124 0-15.129409-7.015089-15.129409-15.649046 0-8.693914 6.795243-15.709004 15.129409-15.709004 8.334166 0 15.129409 7.015089 15.129409 15.709004C408.525232 387.196163 401.749975 394.211252 393.395823 394.211252zM448.637154 335.172579c-8.394124 0-15.129409-7.075047-15.129409-15.709004s6.795243-15.649046 15.129409-15.649046c8.334166 0 15.129409 7.015089 15.129409 15.649046S457.031278 335.172579 448.637154 335.172579zM535.05666 451.411212c7.874488 0 14.329969 6.795243 14.329969 15.249325 0 8.394124-6.395523 15.249325-14.329969 15.249325-7.874488 0-14.270011-6.855201-14.270011-15.249325C520.846607 458.246428 527.182172 451.411212 535.05666 451.411212zM478.955931 450.491856c8.394124 0 15.129409 7.194964 15.129409 16.168682 0 8.91376-6.795243 16.108724-15.129409 16.108724s-15.129409-7.194964-15.129409-16.108724C463.766563 457.746777 470.621765 450.491856 478.955931 450.491856zM574.888778 394.610972c0 31.637854-31.298091 57.29989-69.911062 57.29989-38.553013 0-69.851104-25.662037-69.851104-57.29989 0-31.637854 31.298091-59.158589 69.851104-59.158589C543.570701 335.472369 574.888778 362.913161 574.888778 394.610972zM421.476167 453.249925c-8.573998 0-15.589088-7.015089-15.589088-15.649046s7.015089-15.649046 15.589088-15.649046c8.633956 0 15.589088 7.015089 15.589088 15.649046S430.050165 453.249925 421.476167 453.249925zM563.596682 335.172579c-7.874488 0-14.270011-7.075047-14.270011-15.709004s6.395523-15.649046 14.270011-15.649046c7.874488 0 14.270011 7.015089 14.270011 15.649046S571.491156 335.172579 563.596682 335.172579zM620.616768 393.291896c-7.874488 0-14.270011-7.015089-14.270011-15.649046s6.395523-15.649046 14.270011-15.649046c7.874488 0 14.270011 7.015089 14.270011 15.649046S628.511242 393.291896 620.616768 393.291896zM633.167982 515.226541l1.718797 24.802638c0 59.958029-57.9994 59.098631-57.9994 59.098631l-142.520236 0c-57.879484 0-55.361247-54.441891-55.361247-54.441891l0-30.778455c-46.147697-17.487759-91.655841-46.087739-114.859598-92.934946 0 0-58.059358-210.992305-57.020086-192.525232l0-101.548916c0 0-4.776656-59.038673 57.020086-59.038673l482.482262 0c0 0 59.378435 2.478265 59.378435 59.038673l0 96.612371-61.736784 196.902168C712.572399 468.779055 671.601079 497.838713 633.167982 515.226541zM507.795743 275.154592l-0.279804 0c7.874488 0.059958 14.210053 6.615369 14.210053 14.729689 0 8.234236-6.395523 14.789647-14.270011 14.789647s-14.270011-6.555411-14.270011-14.789647c0-8.11432 6.335565-14.669731 14.210053-14.729689-88.438093 0.179874-160.067952 53.562506-160.067952 119.336464 0 65.933846 71.809733 119.396423 160.427701 119.396423 88.617967 0 160.427701-53.462576 160.427701-119.396423S596.393724 275.154592 507.795743 275.154592zM591.677026 452.330569c-8.11432 0-14.729689-6.795243-14.729689-15.189367 0-8.394124 6.615369-15.249325 14.729689-15.249325 8.174278 0 14.729689 6.795243 14.729689 15.249325C606.346757 445.535325 599.791346 452.330569 591.677026 452.330569zM892.506445 599.687419l-59.318477 33.036874c0 0-80.563605 55.880883-312.321375 55.880883l-35.675027 0c-182.692116 0-305.246328-55.880883-305.246328-55.880883l-59.318477-33.036874C47.577895 560.334966 85.731188 493.881483 85.731188 493.881483l34.755671-72.509244 202.778055 106.445488c0 0-18.247227 32.737084-24.163086 47.866493-6.495453 12.191466-1.958629 9.553313 2.538223 12.311382 0 0 94.473868 41.550914 183.551514 41.550914l42.810033 0c0 0 129.869092 0.179874 184.530828-47.98641 6.035775-5.356251 5.755971 3.617468 1.319077-7.594684-9.373439-23.823324-23.94324-46.147697-23.94324-46.147697l202.778055-106.445488 34.755671 72.509244C927.422005 493.881483 965.575297 560.334966 892.506445 599.687419z"  horiz-adv-x="1024" />

    
    <glyph glyph-name="zhuangxiu" unicode="&#58884;" d="M1009.021606 360.173529c0 27.424464-10.681994 53.234167-30.025424 72.607699L578.123364 834.167014c-38.785598 38.821723-106.431005 38.821723-145.215399 0.036124l-138.633528-139.865371c-40.016237-40.023462-40.05477-105.16665-0.067432-145.22142l400.799366-401.317149c19.410861-19.410861 45.189256-30.088039 72.681153-30.088039 27.418444 0 53.196838 10.675974 72.570371 30.055527l31.106748 32.408432 27.936227-27.968739c13.387714-13.381694 13.387714-35.053944 1.984435-46.625804l-102.596999-87.770328c-13.314261-13.420226-35.01782-13.388919-48.406739 0L487.6136 280.785274l-3.4258 3.4258c-40.048749 40.018645-105.197958 40.122202-145.215399 0.099944l-10.3063-10.302688-65.692279 65.660971c-13.388919 13.382898-35.055149 13.345569-48.406739 0l-20.711341-20.680033c-0.032512-0.031308-0.068636-0.031308-0.099944-0.068636L45.009838 170.316761c-40.018645-40.016237-40.05477-105.165446-0.031308-145.251523l88.921493-90.326733c19.990056-19.990056 46.316338-30.025424 72.607699-30.025424 26.290157 0 52.580315 9.998039 72.639007 29.989299l144.69882 155.297728c0.036124 0.031308 0.036124 0.068636 0.068636 0.09874l20.711341 20.680033c6.434965 6.43617 10.034163 15.0964 10.034163 24.200961 0 9.073253-3.600402 17.800916-9.998039 24.199757l-67.550279 66.288332 10.268972 10.268972c13.352794 13.419022 35.055149 13.382898 48.403126-0.036124l0 0.036124 3.4258-3.420984 0-0.037329 262.704092-263.012354c20.268214-20.236907 46.934066-30.230129 73.328984-30.230129 25.710962 0 51.143766 9.518788 69.939308 28.410661l102.596999 87.777553c40.05477 40.018645 40.084874 105.197958 0.036124 145.284035l-27.936227 27.935023 59.085121 59.016484C998.303488 306.939362 1009.021606 332.718961 1009.021606 360.173529L1009.021606 360.173529zM875.063785 332.379391c-6.675795-6.508418-15.301105-9.794538-23.960131-9.794538-8.902264 0-17.770812 3.4258-24.447811 10.268972L481.554329 685.048973c-13.215521 13.524987-13.010816 35.155093 0.511763 48.407943 13.487659 13.209501 35.191217 13.042124 48.406739-0.517784l345.070205-352.159023C888.759761 367.262347 888.586363 345.62622 875.063785 332.379391L875.063785 332.379391zM875.063785 332.379391"  horiz-adv-x="1024" />

    
    <glyph glyph-name="dianhua" unicode="&#58954;" d="M317.934933 643.0208c-14.498133-6.7072-30.882133-21.6064-49.169066-44.689067-16.699733-21.0944-17.152-26.077867-17.1264-53.794133 0.068267-61.789867 29.038933-128.503467 86.912-200.123733 35.7632-44.270933 79.991467-88.064 123.9296-124.424534 73.582933-60.919467 141.5936-93.610667 204.023466-98.048 29.866667-2.1248 32.4096-2.0992 55.150934 15.914667 15.428267 12.2112 27.511467 23.722667 36.232533 34.551467 11.502933 14.276267 14.9504 21.256533 14.4128 39.517866-0.349867 11.272533-2.961067 20.462933-7.842133 27.579734-20.6592 26.197333-43.554133 44.509867-68.676267 54.912-7.261867 3.003733-18.568533 7.586133-26.0864 8.448a45.124267 45.124267 0 0 1-13.346133-0.469334c-16.657067-2.9952-22.6304-9.378133-33.834667-20.573866-2.397867-2.4064-4.642133-4.693333-6.724267-6.8352-13.704533-14.1824-14.711467-19.959467-37.4784-13.4912-26.350933 7.483733-60.970667 34.346667-103.816533 80.605866-49.1008 48.452267-77.576533 85.009067-85.3504 109.764267-6.4512 20.5312 0.017067 22.673067 12.6208 34.952533 27.298133 26.589867 36.3008 50.466133 27.008 71.6288-21.3248 44.714667-44.381867 72.448-69.179733 83.208534-13.525333 5.888-27.946667 7.714133-41.659734 1.365333zM512-118.7584c-277.213867 0-502.749867 225.536-502.749867 502.7584S234.786133 886.7584 512 886.7584c277.2224 0 502.766933-225.536 502.766933-502.7584S789.2224-118.7584 512-118.7584z m0 981.333333C248.1152 862.574933 33.4336 647.8848 33.4336 384S248.1152-94.574933 512-94.574933c263.893333 0 478.583467 214.690133 478.583467 478.574933S775.893333 862.574933 512 862.574933z"  horiz-adv-x="1024" />

    
    <glyph glyph-name="renyuan" unicode="&#58997;" d="M633.856 409.6c46.08 36.352 75.776 92.16 75.776 155.136 0 109.056-88.576 197.632-197.632 197.632S314.368 673.792 314.368 564.736C314.368 501.76 344.064 445.44 390.144 409.6c-121.344-48.64-207.36-166.912-207.36-305.664v-66.048c0-18.432 14.848-32.768 32.768-32.768h592.384c18.432 0 32.768 14.848 32.768 32.768v66.048c0.512 138.752-85.504 257.536-206.848 305.664zM224.256 395.264c10.24 3.072 17.408 11.776 17.408 23.04 0 8.704-4.608 15.872-11.264 19.968-27.648 23.04-45.568 57.344-45.568 96.256 0 61.44 44.544 112.64 103.424 122.88v0.512c7.68 2.048 12.8 8.704 12.8 16.896 0 9.728-8.192 17.92-17.92 17.92-1.024 0-2.048 0-2.56-0.512v0.512c-1.536 0-3.584-0.512-5.12-0.512-74.24-17.92-125.952-83.968-125.952-160.256 0-41.472 15.872-80.896 43.008-110.592-85.504-44.544-141.312-133.12-141.312-233.472v-38.912h0.512c0-1.024-0.512-2.048-0.512-3.072 0-10.752 8.704-19.456 19.456-19.456s19.456 8.704 19.456 19.456c0 1.024 0 2.048-0.512 3.072-1.024 9.216-1.536 17.92-1.536 27.136 0.512 96.256 55.808 179.2 136.192 219.136zM972.8 187.904c0 100.352-55.808 189.44-141.312 233.472 27.136 29.696 43.008 68.608 43.008 110.592 0 74.24-50.176 139.776-121.856 158.72-1.536 0.512-3.584 1.024-5.12 1.024-10.24 0-18.432-8.192-18.432-18.432 0-7.68 4.608-14.336 11.776-16.896 54.784-12.8 95.744-62.464 95.744-121.344 0-39.936-18.432-75.264-47.616-97.792-5.632-4.608-9.216-10.752-9.216-18.432 0-11.776 8.704-22.016 20.48-23.552 79.872-40.448 134.656-122.88 134.656-218.624 0-9.216-0.512-18.432-1.536-27.136v-2.048c0-10.752 8.704-19.968 19.968-19.968s19.968 8.704 19.968 19.968v2.048l-0.512 38.4z"  horiz-adv-x="1024" />

    
    <glyph glyph-name="dianhua1" unicode="&#58921;" d="M522.24 860.16C259.072 860.16 46.08 646.656 46.08 384c0-263.168 213.504-476.16 476.16-476.16 263.168 0 476.16 213.504 476.16 476.16 0.512 262.656-212.992 476.16-476.16 476.16z m185.344-695.296c-33.792-33.792-158.72-1.536-282.624 121.856-123.392 123.392-155.136 248.832-121.344 282.112 29.184 29.184 64.512 79.872 117.76 13.824 53.248-66.048 27.136-84.48-3.072-114.688-20.992-20.992 23.04-74.24 68.608-119.808 46.08-45.568 98.816-89.6 119.808-68.608 30.208 30.208 48.64 56.32 114.688 3.072 66.56-53.248 15.36-89.088-13.824-117.76z"  horiz-adv-x="1024" />

    
    <glyph glyph-name="cultivate" unicode="&#58906;" d="M281.6 588.8c19.2-70.4 89.6-70.4 115.2 0 12.8 0 19.2 12.8 19.2 25.6s0 25.6-6.4 25.6c0 38.4-19.2 64-64 64-51.2-6.4-70.4-25.6-70.4-70.4-12.8 0-12.8-12.8-6.4-25.6 0-6.4 6.4-19.2 12.8-19.2zM435.2 166.4v25.6c25.6 0 51.2 19.2 51.2 51.2l198.4 198.4c6.4 6.4 6.4 12.8 0 19.2s-12.8 6.4-19.2 0l-179.2-179.2v172.8c0 38.4-25.6 70.4-64 76.8h-25.6l-57.6-115.2-57.6 115.2h-32c-38.4-12.8-64-44.8-64-76.8v-204.8c0-25.6 19.2-51.2 51.2-51.2v-25.6l198.4-6.4zM32 339.2c0-76.8 64-140.8 140.8-140.8-6.4 12.8-12.8 25.6-12.8 44.8v19.2c-44.8 6.4-70.4 32-70.4 76.8v384c0 44.8 38.4 76.8 76.8 76.8h678.4c44.8 0 76.8-38.4 76.8-76.8v-384c0-44.8-38.4-76.8-76.8-76.8h-300.8l-25.6-25.6c0-12.8-6.4-19.2-12.8-25.6h339.2c76.8 0 140.8 64 140.8 140.8v371.2c0 76.8-64 140.8-140.8 140.8h-672c-76.8 0-140.8-64-140.8-140.8v-384zM230.4 115.2h-108.8c-51.2 0-89.6-44.8-89.6-89.6v-121.6h294.4v121.6c0 51.2-44.8 89.6-96 89.6zM563.2 115.2h-102.4c-51.2 0-89.6-44.8-89.6-89.6v-121.6h294.4v121.6c-6.4 51.2-51.2 89.6-102.4 89.6zM902.4 115.2h-108.8c-51.2 0-89.6-44.8-89.6-89.6v-121.6h294.4v121.6c-6.4 51.2-51.2 89.6-96 89.6z"  horiz-adv-x="1024" />

    
    <glyph glyph-name="bofang" unicode="&#58929;" d="M512-127.534545C232.261818-127.534545 0.465455 104.261818 0.465455 384S232.261818 895.534545 512 895.534545 1023.534545 663.738182 1023.534545 384 791.738182-127.534545 512-127.534545z m0 959.115636A446.836364 446.836364 0 0 1 64.418909 384 446.836364 446.836364 0 0 1 512-63.581091 446.836364 446.836364 0 0 1 959.581091 384 446.836364 446.836364 0 0 1 512 831.581091z m164.724364-487.936L436.596364 179.106909c-32.535273-22.341818-58.88-8.564364-58.88 30.952727V557.940364c0 39.424 26.298182 53.294545 58.88 30.999272l240.081454-164.584727c32.535273-22.295273 32.581818-58.368 0-80.709818z"  horiz-adv-x="1024" />

    
    <glyph glyph-name="xiu" unicode="&#58911;" d="M610.4 643.2l-3.2 1.6c-3.68 2.08-7.84 3.04-12 3.04-15.2 0-27.52-13.76-27.52-30.72v-104c0-1.28 0.16-2.56 0.16-3.84-1.92-29.28-26.72-52.8-55.52-52.8s-53.6 23.36-55.52 52.16c0.16 1.92 0.32 3.2 0.32 4.48v104c0 16.96-12.32 30.72-27.52 30.72-3.68 0-7.36-0.8-10.72-2.4l-3.04-1.44-0.16 0.48c-21.76-10.56-41.44-24.8-58.72-42.08-41.44-41.44-64.16-96.48-64.16-155.04 0-39.2 10.4-77.44 30.08-111.04 17.12-29.12 41.28-54.4 69.6-72.8l1.44-0.96 0.16-122.24c0.96-11.36 10.4-19.84 21.6-19.84 12 0 21.76 9.76 21.76 21.76 0 1.28-0.16 2.56-0.32 4v153.6l-7.04 4.16c-24.32 14.08-44.8 34.56-59.2 58.72-14.72 24.96-22.56 53.6-22.56 82.88 0 43.68 16.96 84.8 48 115.68l5.28 5.12 0.48-6.88v-47.84c0-29.44 11.52-57.28 32.32-78.08s48.64-32.32 78.08-32.32c59.84 0 108.8 47.84 110.4 107.36h-0.16l0.16 4v53.28l5.28-5.28c30.72-30.88 47.52-71.84 47.52-115.2 0-29.28-7.84-57.92-22.56-83.04-14.4-24.32-34.72-44.64-59.36-58.72l-7.04-4.16V140.8l0.16-0.8c0.96-11.04 10.56-19.84 21.6-19.84 12 0 21.76 9.76 21.76 21.76 0 1.44-0.16 2.72-0.32 4v116l1.44 0.96c28.48 18.4 52.64 43.68 69.76 72.8 19.84 33.44 30.24 72 30.24 111.2 0 58.56-22.72 113.6-64.16 155.04-16.96 16.96-36 30.72-56.8 41.28zM512.16 896C229.76 896 0.16 666.24 0.16 384s229.6-512 512-512 512 229.76 512 512S794.56 896 512.16 896z m0-958.08C266.08-62.08 66.08 138.08 66.08 384s200 446.08 446.08 446.08S958.24 629.92 958.24 384 758.08-62.08 512.16-62.08z"  horiz-adv-x="1024" />

    
    <glyph glyph-name="qian" unicode="&#58908;" d="M511.931432 841.008169A457.076738 457.076738 0 1 0 54.854694 383.931432 457.625285 457.625285 0 0 0 511.931432 841.008169m0 54.854694a511.931432 511.931432 0 1 1 512.342841-511.794295A511.931432 511.931432 0 0 1 512.342842 896zM717.087987 418.489889H306.637739a27.427347 27.427347 0 0 0 0 54.854694h410.450248a27.427347 27.427347 0 0 0 0-54.854694zM717.087987 246.520423H306.637739a27.427347 27.427347 0 0 0 0 54.854694h410.450248a27.427347 27.427347 0 1 0 0-54.854694zM512.342842 88.950315a27.427347 27.427347 0 0 0-27.427347 27.427347v329.128164a27.427347 27.427347 0 0 0 54.854694 0v-329.128164a27.427347 27.427347 0 0 0-27.427347-27.427347zM434.586313 418.489889a27.427347 27.427347 0 0 0-24.410339 14.947904l-91.195928 178.277755a27.427347 27.427347 0 0 0 48.409267 24.410339l91.195929-178.277755a27.427347 27.427347 0 0 0-24.410339-39.90679zM590.510781 418.489889a27.427347 27.427347 0 0 0-24.273202 39.358243l91.195928 178.277755a27.427347 27.427347 0 1 0 48.820678-24.958886l-91.195929-178.277755a27.427347 27.427347 0 0 0-24.547475-14.399357z"  horiz-adv-x="1024" />

    
    <glyph glyph-name="dianzan" unicode="&#58885;" d="M230.4 460.8l-66.176 0.896A32.4096 32.4096 0 0 1 128 429.5424v-397.2096c0-17.8944 14.336-31.9488 32.0256-31.9488 1.6896 0 3.4048-0.256 5.0688 0h54.784c0.0768 0 0.128-0.0768 0.2048-0.0768 0.1024 0 0.1536 0.0768 0.2304 0.0768h0.6656v0.128c12.032 0.4864 9.4208 12.9536 9.4208 25.088v25.6H179.2V409.6h51.2v51.2z m655.9744 4.8128c-9.0624 10.7776-45.2608 20.1984-67.1744 20.7872h-179.2c22.784 82.0992 34.0224 164.864 0 230.4C624.64 746.4192 580.5568 768.3584 550.5536 767.9744c-58.4192-0.6912-81.4336-42.752-91.1872-95.616-13.2608-72.0128-83.456-200.832-177.7152-211.5584v-460.7232l441.7536 0.0256 7.8592 0.2304c17.3824-0.0256 40.1152-2.304 55.8848 7.8592 18.6112 10.8032 18.7904 30.2848 25.2672 54.5024 0 0 62.9248 268.16 80.0256 345.4208 6.2208 28.0576 4.3008 45.184-6.0672 57.4976z m-119.0656-407.9104l-0.1024 0.0512c-3.584-8.7296-10.0096-8.96-24.8064-6.5536H332.8V435.2c50.4064 20.0192 86.5792 52.096 121.1648 112.896 27.1616 47.7952 33.7664 71.04 43.8016 114.56 13.2096 57.1904 30.7968 66.4832 52.7872 66.4832 20.7872 0 54.6304-14.08 61.2096-96.0512 4.8128-60.0832-26.2656-123.5968-34.9184-155.648-1.2032-4.48-2.7904-18.8928 6.784-27.6224 11.0336-9.984 20.1984-14.6176 30.7712-14.6176h204.8c11.2128 0.5888 29.056 5.3248 31.7696-12.1856 3.456-22.4256-83.6608-365.312-83.6608-365.312zM291.2768 0.0256c0.2816-0.0256 0.4096-0.0256 0.256 0.0512 0.2304 0.0256 0.3328 0.0256-0.256 0.0256s-0.4864 0-0.256-0.0256c-0.1024-0.0768-0.0256-0.0768 0.256-0.0512z"  horiz-adv-x="1024" />

    
    <glyph glyph-name="renzheng" unicode="&#58915;" d="M924.903226 735.793548h-41.290323c-1.651613 0-92.490323 1.651613-186.632258 39.63871-97.445161 39.63871-160.206452 84.232258-160.206451 85.883871L512 879.483871l-24.774194-18.167742s-62.76129-46.245161-160.206451-85.883871C232.877419 737.445161 140.387097 735.793548 140.387097 735.793548H99.096774v-416.206451C99.096774 109.832258 424.464516-111.483871 512-111.483871c94.141935 0 412.903226 221.316129 412.903226 431.070968V735.793548zM512-58.632258c-77.625806 0-368.309677 196.541935-368.309677 384.825806V697.806452h36.335483c1.651613 0 82.580645 1.651613 166.812904 36.335483 85.883871 34.683871 142.03871 75.974194 142.038709 75.974194l21.470968 16.516129 21.470968-16.516129s56.154839-41.290323 142.03871-75.974194C761.393548 699.458065 842.322581 697.806452 843.974194 697.806452h36.335483v-371.612904c0-186.632258-284.077419-384.825806-368.309677-384.825806zM512-114.787097C424.464516-114.787097 95.793548 106.529032 95.793548 319.587097V739.096774h44.593549c1.651613 0 92.490323 1.651613 186.632258 39.63871C424.464516 818.374194 485.574194 862.967742 485.574194 862.967742L512 882.787097 538.425806 862.967742s62.76129-46.245161 160.206452-84.232258C792.774194 740.748387 881.96129 739.096774 883.612903 739.096774h44.593549v-419.509677c0-123.870968-107.354839-239.483871-171.767742-295.63871-89.187097-79.277419-193.23871-138.735484-244.43871-138.735484zM102.4 732.490323v-412.903226c0-120.567742 109.006452-234.529032 173.419355-290.683871 95.793548-84.232258 196.541935-135.432258 236.180645-135.432258 99.096774 0 409.6 226.270968 409.6 427.767742v412.903225h-37.987097c-1.651613 0-92.490323 1.651613-188.283871 41.290323-97.445161 39.63871-160.206452 85.883871-161.858064 85.883871l-23.122581 16.516129-23.122581-16.516129s-62.76129-46.245161-160.206451-85.883871C232.877419 734.141935 140.387097 732.490323 140.387097 732.490323H102.4zM512-61.935484C432.722581-61.935484 140.387097 136.258065 140.387097 326.193548V701.109677h39.638709s80.929032 1.651613 165.161291 36.335484C431.070968 772.129032 487.225806 813.419355 487.225806 813.419355L512 829.935484l23.122581-16.516129s56.154839-41.290323 142.038709-75.974194c84.232258-34.683871 165.16129-36.335484 165.161291-36.335484h39.638709v-374.916129c0-110.658065-95.793548-213.058065-153.6-264.258064C650.735484-9.083871 556.593548-61.935484 512-61.935484zM146.993548 694.503226v-368.309678c0-107.354839 95.793548-208.103226 153.6-259.303225 84.232258-74.322581 175.070968-120.567742 211.406452-120.567742 77.625806 0 365.006452 193.23871 365.006452 381.52258V694.503226h-33.032258s-82.580645 1.651613-168.464517 36.335484c-89.187097 36.335484-143.690323 75.974194-143.690322 77.625806L512 821.677419l-19.819355-14.864516s-54.503226-39.63871-143.690322-75.974193C264.258065 696.154839 181.677419 694.503226 180.025806 694.503226h-33.032258zM478.967742 185.806452L264.258065 390.606452l44.593548 47.896774 171.767742-163.509678L749.832258 549.16129l42.941936-42.941935z"  horiz-adv-x="1024" />

    
    <glyph glyph-name="tui" unicode="&#58941;" d="M508.283259 885.285926C233.566815 885.285926 10.827852 662.528 10.827852 387.792593c0-274.773333 222.738963-497.493333 497.455407-497.493334 274.773333 0 497.493333 222.738963 497.493334 497.493334C1005.795556 662.528 783.03763 885.285926 508.283259 885.285926z m0-917.447111c-231.917037 0-419.934815 188.017778-419.934815 419.972741 0 231.917037 188.017778 419.934815 419.934815 419.934814 231.954963 0 419.972741-188.017778 419.972741-419.934814 0-231.954963-188.017778-419.972741-419.972741-419.972741zM279.798519 669.50637l-43.690667-41.263407c43.690667-35.195259 77.065481-67.963259 100.124444-98.304l45.511111 44.904296c-27.913481 31.55437-61.895111 63.108741-101.944888 94.663111z m344.670814-546.740148c-33.374815 0-69.783704 0.606815-108.619852 1.21363-38.836148 0.606815-70.997333 4.247704-96.483555 10.315852-24.272593 7.281778-45.511111 21.238519-63.715556 41.870222-8.495407 10.315852-15.777185 15.17037-22.452148 15.17037-12.136296 0-32.768-26.699852-63.108741-81.313185l-46.72474 43.083852c30.340741 48.545185 57.040593 79.492741 81.313185 92.842667v166.267259h-80.099556V470.471111h138.960593V239.881481l6.674963-6.674962c13.956741-15.777185 27.913481-27.913481 41.870222-35.802075 17.59763-9.102222 44.297481-13.956741 80.099556-15.17037 35.195259-0.606815 76.458667-1.21363 123.183407-1.21363 30.340741 0 60.681481 0.606815 92.235852 0.606815 31.55437 1.21363 55.220148 2.427259 72.210963 3.640889l-15.777185-62.501926h-139.567408zM566.234074 405.541926c30.340741-16.990815 58.861037-33.98163 85.560889-52.186074 18.204444 16.990815 34.588444 33.98163 48.545185 52.186074l45.511111-35.195259a541.392593 541.392593 0 0 0-48.545185-49.758815 846.772148 846.772148 0 0 0 74.638222-62.501926l-39.442963-47.331556c-52.792889 54.006519-120.149333 104.372148-202.069333 151.703704l35.802074 43.083852z m-74.638222 103.765333v-38.229333h179.617185v38.229333h-179.617185z m179.617185 52.186074v38.229334h-179.617185v-38.229334h179.617185z m-179.617185-146.24237v-135.319704a936.580741 936.580741 0 0 1 100.731259 24.272593l14.563556-57.040593c-48.545185-12.743111-110.440296-25.486222-184.471704-37.622518l-13.956741 53.399703c14.563556 5.461333 21.845333 13.956741 21.845334 24.879408V655.54963H733.108148v-240.298667H491.576889z"  horiz-adv-x="1024" />

    
    <glyph glyph-name="bofang1" unicode="&#58912;" d="M512 872C242.48 872 24 653.52 24 384s218.48-488 488-488 488 218.48 488 488S781.52 872 512 872z m198.992-538.688L449.92 182.592c-48.288-27.872-87.792-5.072-87.792 50.688V534.72c0 55.76 39.504 78.56 87.792 50.688l261.072-150.72c48.288-27.872 48.288-73.504 0-101.376z"  horiz-adv-x="1024" />

    
    <glyph glyph-name="zhengjian" unicode="&#58944;" d="M121.856 768h838.656v-699.392H842.24l-9.216 24.064c11.776 19.968 18.944 41.984 21.504 64.512h17.408v522.24H165.888v-521.216h345.088c2.56-23.04 9.728-45.056 21.504-65.024l-9.216-24.064H77.312V768h44.544z m560.64-476.672c-64.512 0-116.224-52.224-116.224-116.224 0-28.672 10.752-55.296 27.648-75.776l-41.472-109.056 57.856 3.072 41.984-40.96 30.72 79.872 36.352-94.72 41.984 40.96 57.856-3.072-47.104 123.392c17.408 20.48 27.648 46.592 27.648 75.264-0.512 65.024-52.736 117.248-117.248 117.248z m66.048-156.672c-17.408-9.728-39.424-15.36-62.976-15.36-28.16 0-53.248 8.192-72.192 20.992 10.752-27.648 37.376-47.104 68.608-47.104 29.696 0 54.784 16.896 66.56 41.472z m-82.432 119.808c17.92-5.12 36.352-15.872 51.712-31.744 18.432-18.432 30.208-40.96 33.792-61.952 11.264 25.088 6.656 56.32-14.336 76.8-18.944 19.456-47.104 25.088-71.168 16.896zM242.176 385.536v-48.128h558.592v48.128H242.176z m278.528 113.152v-48.128h279.552v48.128H520.704z m0 112.64V563.2h279.552v48.128H520.704zM243.2 611.84v-172.032h209.408V611.84H243.2z"  horiz-adv-x="1024" />

    
    <glyph glyph-name="zixun" unicode="&#58886;" d="M1041.06666667 56.17777812999998v-179.62666666L863.57333333-14.222221869999998c-24.6044448-3.98222187-49.92-6.4-75.8044448-6.4-121.8844448 0-231.11111147 46.64888853-306.48888853 120.32 12.37333333-0.71111147 24.74666667-1.5644448 37.4044448-1.5644448 17.6355552 0 35.12888853 0.85333333 52.33777707 2.2755552 59.44888853-40.96 134.6844448-65.5644448 216.74666666-65.56444373 28.30222187 0 55.60888853 3.27111147 81.92 8.6755552l61.7244448-41.10222187s-0.14222187 0-0.14222186-0.14222293l46.50666666-30.86222187v112.21333334c95.28888853 53.61777813 158.29333333 146.34666667 158.29333334 251.8755552 0 66.70222187-25.45777813 128.2844448-68.1244448 178.2044448 2.8444448 19.4844448 4.8355552 39.25333333 4.8355552 59.30666666 0 9.2444448-0.9955552 18.2044448-1.56444374 27.30666667 78.79111147-65.5644448 128.2844448-158.00888853 128.28444374-260.8355552-0.14222187-115.05777813-62.29333333-217.45777813-158.4355552-283.30666667z m-443.30666667 113.20888854c-25.8844448 0-51.2 2.2755552-75.8044448 6.4l-177.49333333-109.22666667V246.04444479999995c-96.2844448 65.99111147-158.29333333 168.24888853-158.29333334 283.44888853 0 198.96888853 184.32 360.10666667 411.59111147 360.10666667 227.27111147 0 411.59111147-161.28 411.59111147-360.10666667 0-198.82666667-184.32-360.10666667-411.59111147-360.10666666z m0 657.06666666c-192.42666667 0-348.30222187-134.6844448-348.30222187-300.8 0-105.52888853 63.14666667-198.25777813 158.29333334-251.8755552v-112.21333333l46.50666666 30.86222187c-0.14222187 0-0.14222187 0-0.14222293 0.14222186l61.7244448 41.10222294c26.31111147-5.54666667 53.61777813-8.6755552 81.92-8.67555627 192.42666667 0 348.30222187 134.6844448 348.30222187 300.8 0 165.97333333-155.8755552 300.65777813-348.30222187 300.65777813zM803.5555552 478.15111147c-26.16888853 0-47.50222187 21.19111147-47.50222187 47.50222186 0 26.16888853 21.33333333 47.50222187 47.50222187 47.50222187s47.50222187-21.33333333 47.50222293-47.50222187c0-26.31111147-21.33333333-47.50222187-47.50222293-47.50222186z m-190.00888853 0c-26.16888853 0-47.50222187 21.19111147-47.50222187 47.50222186 0 26.16888853 21.33333333 47.50222187 47.50222187 47.50222187s47.50222187-21.33333333 47.50222186-47.50222187c0-26.31111147-21.19111147-47.50222187-47.50222186-47.50222186z m-189.86666667 0c-26.31111147 0-47.50222187 21.19111147-47.50222187 47.50222186 0 26.16888853 21.19111147 47.50222187 47.50222187 47.50222187 26.16888853 0 47.50222187-21.33333333 47.50222187-47.50222187-0.14222187-26.31111147-21.33333333-47.50222187-47.50222187-47.50222186z m0 0"  horiz-adv-x="1365" />

    
    <glyph glyph-name="zhuanye" unicode="&#58930;" d="M460.707 247.467v48.511H208.363v-48.511h252.344z m-62.602-130.302v48.507H208.363v-48.507h189.742z m62.602 260.627v48.409H208.363v-48.409h252.344z m494.711-377.386a11.466 11.466 0 0 1 1.143 11.993L833.327 243.062a152.736 152.736 0 0 1 14.093 63.482 154.15 154.15 0 0 1-44.786 109.33 154.147 154.147 0 0 1-109.038 45.498h-0.698c-52.231 0.009-100.913-26.451-129.313-70.288-28.402-43.841-32.654-99.086-11.298-146.754l0.704-1.578-125.205-226.363a11.068 11.068 0 0 1 0.856-11.944c2.563-3.44 6.995-4.945 11.112-4.142l75.005 16.938 25.456-71.585a10.876 10.876 0 0 1 9.249-7.229h0.854a10.82 10.82 0 0 1 9.814 5.676l114.815 210.434c13.391-1.426 21.058-1.578 33.877-0.309l114.841-213.312a10.667 10.667 0 0 1 9.535-5.673h1.161a11.282 11.282 0 0 1 9.53 7.227l25.748 71.326 74.874-17.354a10.566 10.566 0 0 1 10.905 3.964z m-406.213 26.52l-11.525 32.482a3.883 3.883 0 0 1-4.428 2.434l-34.136-7.695 83.218 149.783c15.226-15.492 27.323-22.611 46.256-32.975l-79.385-144.029z m143.124 176.588c-57.466 0.357-103.813 47.144-103.624 104.609 0.238 57.289 46.749 103.6 104.04 103.6h0.439c57.44-0.255 103.811-47.009 103.6-104.454-0.304-57.45-47.004-103.844-104.455-103.755z m161.769-155.138a5.13 5.13 0 0 1-5.955-3.24l-13.26-37.04-84.773 157.836c21.627 11.939 36.001 20.486 53.638 38.15l89.203-164.516-38.853 8.81zM208.363 686.808v-48.536h440.064v48.536H208.363z m0 0M727.786 832.132H116.133c-28.593 0-51.8-24.06-51.8-53.511v-750.372c0-29.656 23.335-53.51 51.8-53.51h281.921v48.354H112.713V783.88h618.492v-285.368h48.381V778.621c0 29.578-23.337 53.511-51.8 53.511z m0 0M208.363 556.502h352.058v-48.536H208.363z"  horiz-adv-x="1024" />

    
    <glyph glyph-name="top1" unicode="&#58888;" d="M527.01899 693.839395c-3.982202 3.987067-9.383839 6.225079-15.019007 6.225079-5.635168 0-11.036805-2.238012-15.022656-6.225079l-154.799891-154.793809c-8.29524-8.296457-8.29524-21.746423 0-30.041663 8.300106-8.296457 21.746423-8.296457 30.041663 0L511.999983 648.77994l139.771153-139.776018c4.152485-4.148837 9.588179-6.225079 15.023872-6.225079 5.434477 0 10.875036 2.076243 15.022656 6.225079 8.296457 8.29524 8.296457 21.745207 0 30.041663L527.01899 693.839395 527.01899 693.839395zM116.095644 299.917642l90.86694 0L206.962584 67.93552599999998l42.48574 0L249.448324 299.917642l90.86694 0 0 42.480875L116.095644 342.39851799999997 116.095644 299.917642zM574.63513 342.39851799999997l-112.546466 0c-13.588626 0-27.182116-5.183917-37.548734-15.550535-10.3727-10.371483-15.5554-23.960109-15.5554-37.5536l0-168.249857c0-13.593491 5.182701-27.182116 15.5554-37.5536 10.366618-10.367834 23.960109-15.5554 37.548734-15.5554l112.546466 0c13.588626 0 27.182116 5.187566 37.5536 15.5554 10.367834 10.371483 15.550535 23.960109 15.550535 37.5536L627.739265 289.29316700000004c0 13.593491-5.182701 27.182116-15.550535 37.5536C601.817247 337.2146 588.223756 342.39851799999997 574.63513 342.39851799999997L574.63513 342.39851799999997zM585.259606 121.04452600000002c0-2.010562-0.54734-4.941871-3.11254-7.511936-2.570065-2.570065-5.50624-3.11254-7.511936-3.11254l-112.546466 0c-2.005697 0-4.937006 0.542475-7.507071 3.11254-2.570065 2.570065-3.11254 5.501374-3.11254 7.511936L451.469054 289.29316700000004c0 2.009346 0.542475 4.940655 3.11254 7.511936 2.570065 2.570065 5.501374 3.111323 7.507071 3.111323l112.546466 0c2.005697 0 4.941871-0.541258 7.507071-3.111323 2.570065-2.571281 3.117405-5.507456 3.117405-7.511936L585.259606 121.04452600000002 585.259606 121.04452600000002zM892.348922 326.846766c-10.371483 10.366618-23.964974 15.5554-37.5536 15.5554l-145.653233 0L709.142089 67.93552599999998l42.480875 0 0 120.380724 103.172357 0c13.593491 0 27.182116 5.183917 37.5536 15.5554 10.367834 10.367834 15.5554 23.961325 15.5554 37.548734l0 47.873998C907.904322 302.886657 902.716756 316.475283 892.348922 326.846766L892.348922 326.846766zM865.418582 241.419169c0-2.00448-0.541258-4.93579-3.111323-7.505855-2.570065-2.571281-5.50624-3.11254-7.507071-3.11254l-103.172357 0 0 69.115652 103.172357 0c2.00448 0 4.937006-0.541258 7.507071-3.111323 2.570065-2.571281 3.111323-5.507456 3.111323-7.511936L865.418582 241.419169 865.418582 241.419169zM865.418582 241.419169"  horiz-adv-x="1024" />

    
    <glyph glyph-name="yanjing" unicode="&#59300;" d="M243.575467-0.068267A200.021333 200.021333 0 0 0 43.8272 199.68v100.7616A92.16 92.16 0 0 0 136.533333 392.465067h311.296a30.037333 30.037333 0 0 0 30.037334-30.037334v-128.887466a233.8816 233.8816 0 0 0-234.2912-233.608534zM136.533333 337.851733a37.546667 37.546667 0 0 1-37.546666-37.546666V199.68a145.408 145.408 0 0 1 144.5888-145.134933A179.268267 179.268267 0 0 1 423.253333 233.6768v104.174933zM71.133867 230.946133a27.306667 27.306667 0 0 0-27.306667 27.306667V601.9072a27.306667 27.306667 0 0 0 8.874667 20.206933L204.8 760.832a27.306667 27.306667 0 1 0 36.727467-40.96L98.440533 589.755733v-331.502933a27.306667 27.306667 0 0 0-27.306666-27.306667zM780.424533-0.068267A233.8816 233.8816 0 0 0 546.133333 233.6768v128.750933a30.037333 30.037333 0 0 0 30.037334 30.037334H887.466667a92.16 92.16 0 0 0 92.16-92.16V199.68a200.021333 200.021333 0 0 0-199.202134-199.748267zM600.746667 337.851733v-104.311466a179.268267 179.268267 0 0 1 179.677866-178.9952A145.408 145.408 0 0 1 925.559467 199.68v100.7616A37.546667 37.546667 0 0 1 887.466667 337.851733zM952.866133 230.946133a27.306667 27.306667 0 0 0-27.306666 27.306667V589.755733l-143.496534 130.798934A27.306667 27.306667 0 1 0 819.2 760.832l152.098133-138.717867a27.306667 27.306667 0 0 0 8.874667-20.206933v-343.6544a27.306667 27.306667 0 0 0-27.306667-27.306667zM653.038933 337.851733H361.2672a27.306667 27.306667 0 1 0 0 54.613334h291.771733a27.306667 27.306667 0 0 0 0-54.613334zM573.44 221.525333h-122.88a27.306667 27.306667 0 0 0 0 54.613334h122.88a27.306667 27.306667 0 0 0 0-54.613334z"  horiz-adv-x="1024" />

    
    <glyph glyph-name="weibo" unicode="&#58923;" d="M629.11 626.659c-15.99-0.663-28.268-14.252-28.268-30.043 0-0.628 0.019-1.256 0.059-1.893 1.03-16.606 15.383-29.93 31.936-28.209 71.08 7.392 126.807-40.374 127.23-113.486 0.015-2.604 0.24-5.189 0.24-7.758 0-0.147 0.01-0.304 0-0.451 0-16.606 13.432-30.082 30.043-30.131 16.64-0.049 30.171 13.399 30.22 30.043-0.059 3.865-0.257 7.998-0.358 12.035-2.566 102.356-78.196 174.574-191.102 169.893zM958.958 466.24c-11.324 182.553-148.234 303.808-331.013 301.169a356.71 356.71 0 0 1-16.438-0.637c-15.973-0.991-28.258-14.261-28.258-30.043 0-0.628 0.019-1.265 0.059-1.903 1.035-16.606 15.336-29.239 31.946-28.199 4.571 0.285 9.112 0.451 13.604 0.52 150.52 2.178 260.628-94.242 269.956-244.634a285.73 285.73 0 0 0 0.549-17.695c0-16.645 13.491-30.131 30.131-30.131s30.131 13.486 30.131 30.131c0 7.102-0.221 14.252-0.667 21.422zM713.506 371.079c-11.868 3.563-38.49 6.844-32.266 22.439 13.456 33.853 19.317 68.524 4.717 89.356-27.358 39.094-104.494 27.322-190.293-8.6 0 0.047-29.125-7.594-22.242 13.778 13.203 42.425 11.215 77.971-9.327 98.483-46.555 46.583-150.604 19.755-263.995-78.591C82.96 406.347 61.945 314.887 61.945 242.026c0-139.366 178.718-224.098 353.558-224.098 229.206 0 381.671 133.169 381.671 238.897 0 63.878-35.323 99.266-83.668 114.254z m-297.534-303.2c-139.514-13.767-259.948 49.298-269.011 140.901-9.062 91.58 96.729 176.997 236.229 190.792 139.53 13.795 259.968-49.27 269.012-140.832 9.049-91.633-96.696-177.057-236.23-190.861zM339.858 339.252c-73.42-32.428-110.273-110.034-82.314-173.337 27.96-63.304 110.144-88.334 183.565-55.906 73.42 32.428 110.274 110.034 82.314 173.337-27.96 63.304-110.145 88.334-183.565 55.906z m36.924-183.18c-24.169-13.954-53.516-8.373-65.547 12.466-12.031 20.839-2.192 49.044 21.977 62.998s53.515 8.373 65.547-12.466c12.031-20.839 2.192-49.044-21.977-62.998z m53.197 75.787c-9.707-4.288-20.573-0.978-24.27 7.391-3.697 8.37 1.176 18.631 10.883 22.918 9.707 4.288 20.573 0.978 24.27-7.391s-1.176-18.63-10.883-22.918z"  horiz-adv-x="1024" />

    
    <glyph glyph-name="cehua" unicode="&#59024;" d="M794.7 6.5c-3.1-3.8-7.7-6.1-12.7-6.1-4.9 0-9.6 2.2-12.7 6.1L667 153.6V692.1c0 45 26.4 76.7 70.7 76.7H820c21.1 0 41.2-8.6 55.8-23.8s22.4-35.6 21.7-56.6l0.3-534.8-103.1-147.1z m45.4 647.1v38.5c-0.7 10.3-8.9 18.5-19.2 19.2H744c-10.3-0.7-18.5-8.9-19.2-19.2v-57.7h115.4v19.2z m0-76.9H724.7v-403.9l57.3-66.9 58.1 66.9V576.7z m-307.7-577H205.5c-42.5 0-76.9 34.4-76.9 76.9V692.1c0 42.5 34.4 76.9 76.9 76.9h326.9c20.4 0 40-8.1 54.4-22.5 14.4-14.4 22.5-34 22.5-54.4v-615.4c0-42.5-34.4-77-76.9-77z m-67.3 538.5H272.8c-15.9 0-28.8-12.9-28.8-28.8s12.9-28.8 28.8-28.8h192.3c15.9 0 28.8 12.9 28.8 28.8s-12.9 28.8-28.8 28.8z m0-134.6H272.8c-15.9 0-28.8-12.9-28.8-28.8s12.9-28.8 28.8-28.8h192.3c15.9 0 28.8 12.9 28.8 28.8s-12.9 28.8-28.8 28.8z m0-134.6H272.8c-15.9 0-28.8-12.9-28.8-28.8s12.9-28.8 28.8-28.8h192.3c15.9 0 28.8 12.9 28.8 28.8S481 269 465.1 269z"  horiz-adv-x="1024" />

    
    <glyph glyph-name="caigou" unicode="&#59038;" d="M464.2 646.5h124v-7h-124zM627.2 646.5V620c0-10.8-8.7-19.5-19.5-19.5h-163c-10.8 0-19.5 8.7-19.5 19.5v26.5H277.6c-13.6 0-24.6-11-24.6-24.6v-556.8c0-13.6 11-24.6 24.6-24.6h504.8c13.6 0 24.6 11 24.6 24.6V621.9c0 13.6-11 24.6-24.6 24.6H627.2z m79.9-284.1L503 158.2 376.4 284.9c-7.8 7.8-7.8 20.5 0 28.3s20.5 7.8 28.3 0l98.4-98.4L679 390.7c7.8 7.8 20.5 7.8 28.3 0 7.6-7.9 7.6-20.5-0.2-28.3zM464.2 647.5v37h124v-37h39V704c0 10.8-8.7 19.5-19.5 19.5h-163c-10.8 0-19.5-8.7-19.5-19.5v-56.5h39z"  horiz-adv-x="1024" />

    
    <glyph glyph-name="dianhua11" unicode="&#58955;" d="M545.65376 239.15008c-10.08128 0-23.40352-2.03264-29.53728-11.83744-1.35168-2.19136-3.072-4.16768-5.00736-5.86752-2.24256-1.96096-22.7072-19.01056-49.06496-19.01056-16.63488 0-31.77472 6.58944-44.05248 19.10272a25.98912 25.98912 0 0 0-3.73248 3.90656 861.056 861.056 0 0 0-69.20704 104.09472 869.91872 869.91872 0 0 0-49.76128 103.27552 26.22464 26.22464 0 0 0-1.32608 4.4288c-5.31968 25.7024-1.67424 46.53056 10.78784 61.93664 16.34304 20.17792 40.66304 20.93056 42.91072 20.93056 2.6368 0.08704 10.61376 0.24064 20.01408 11.1872 20.07552 23.35232 28.75392 72.18688 22.08256 124.3648C379.70432 734.60736 338.31424 793.6 307.47136 793.6c-1.2288-0.0512-2.42176-0.24064-3.59936-0.49664-2.10944-0.39424-4.2496-0.52224-6.40512-0.41472-29.33248 1.74592-56.15104-3.9936-78.88384-16.9472-113.35168-64.73728-107.55584-298.98752 12.5952-511.51872C327.68 93.55264 476.45696-25.600000000000023 593.02912-25.600000000000023c25.4464 0 48.53248 5.78048 68.61312 17.28512 22.12864 12.67712 42.63936 34.23232 56.35584 57.97376 1.152 2.01216 2.64192 4.48512 4.75136 8.43776 13.76256 25.84064-13.16352 89.00096-74.1888 137.04192-35.00032 27.56096-73.472 44.01152-102.90688 44.01152z m0 0M650.0608 408.61696a26.12224 26.12224 0 0 0-25.7024 30.7456 51.26144 51.26144 0 0 1-8.28928 38.6304 51.39968 51.39968 0 0 1-33.2032 21.53984 26.09664 26.09664 0 0 0-20.93568 30.34624c2.58048 14.15168 16.21504 23.46496 30.34624 20.93056a103.2192 103.2192 0 0 0 66.7136-43.14624c15.73888-22.67648 21.6576-50.25792 16.73728-77.57312a26.17856 26.17856 0 0 0-25.66656-21.47328z m0 0M747.92448 406.1184a26.07616 26.07616 0 0 0-25.68704 30.78144c7.17312 39.22944-1.3568 78.96576-24.0896 111.89248-22.70208 32.91648-56.82176 55.00416-96.08704 62.22336a26.09152 26.09152 0 0 0-20.93056 30.34112 25.92768 25.92768 0 0 0 30.35136 20.93056c52.93568-9.69728 98.97984-39.48544 129.58208-83.85536 30.62272-44.36992 42.14784-97.96608 32.41984-150.88128a25.9584 25.9584 0 0 0-25.55904-21.43232z m0 0M856.22784 410.04544c-1.56672 0-3.1232 0.1536-4.71552 0.44032a26.07616 26.07616 0 0 0-20.95616 30.34112c11.904 65.03936-2.22208 130.8416-39.75168 185.2416-37.53472 54.4-94.05952 90.92608-159.09376 102.86592a26.09152 26.09152 0 0 0-20.93056 30.34624c2.57536 14.15168 15.9744 23.48544 30.34624 20.93056 78.72-14.4128 147.0976-58.65984 192.57856-124.49792 45.44512-65.87392 62.5408-145.536 48.12288-224.26624a26.0608 26.0608 0 0 0-25.6-21.4016z m0 0"  horiz-adv-x="1024" />

    
    <glyph glyph-name="keji" unicode="&#59005;" d="M528.5 159.5c-6.8 0-13.6 0.1-20.3 0.2-117.4 2.3-227.7 23.8-310.6 60.6-88 39.1-135.9 91.8-134.8 148.3 1.1 54.9 48.5 104.7 133.6 140.2 79.8 33.3 186 51.6 299.2 51.6 6.7 0 13.5-0.1 20.3-0.2 117.4-2.3 227.7-23.8 310.6-60.6 88-39.1 135.9-91.7 134.8-148.3-1.1-54.9-48.5-104.7-133.6-140.2-79.8-33.3-186-51.6-299.2-51.6m-32.9 363c-108.3 0-209.4-17.3-284.7-48.7-69.4-28.9-109.6-67.6-110.3-106-0.8-39.7 40.2-80.9 112.3-113 78.4-34.8 183.5-55.2 296-57.3 6.5-0.1 13.1-0.2 19.6-0.2 108.3 0 209.4 17.3 284.6 48.7 69.4 28.9 109.6 67.6 110.3 106 0.8 39.7-40.2 80.9-112.3 113-78.4 34.8-183.5 55.2-296 57.3-6.5 0.1-13 0.2-19.5 0.2M700-31.9c-49.8 0-110.3 27.2-174.9 78.7-63.9 50.9-126.1 121-180.1 202.6-64.7 98-109.6 201-126.3 290.2-17.7 94.7-1.5 164 45.6 195.2 17 11.2 37.1 16.9 59.8 16.9 49.8 0 110.3-27.2 174.9-78.7 63.9-50.9 126.1-121 180.1-202.6 64.7-98 109.6-201 126.3-290.2 17.7-94.7 1.5-164-45.6-195.2-17-11.2-37.1-16.9-59.8-16.9M324 713.8c-15.2 0-28.2-3.6-38.9-10.6-33.2-21.9-43.8-79-29.3-156.6 15.8-84.3 58.7-182.4 120.7-276.3 51.8-78.4 111.3-145.5 172.1-193.9C605.6 31 659.4 6 700 6c15.2 0 28.2 3.6 38.9 10.6 33.2 21.9 43.8 79 29.3 156.6-15.8 84.3-58.6 182.4-120.7 276.2-51.8 78.4-111.3 145.5-172.1 193.9-57.1 45.5-110.8 70.5-151.4 70.5M345.8-46.2c-18.4 0-35.3 4.1-50.4 12.4-49.5 27.3-71.3 95-61.3 190.8 9.4 90.2 45.8 196.5 102.4 299.4 61.8 112.3 141.3 207.7 218.2 261.8 8.6 6 20.4 4 26.4-4.6s4-20.4-4.6-26.4c-72.3-50.9-147.7-141.6-206.8-249.1-54.2-98.6-89-199.8-97.9-285.1-8.2-78.5 7-134.6 41.9-153.7 34.8-19.2 90.3-2.1 152.3 46.9 67.3 53.2 134.2 136.8 188.4 235.3 59.1 107.4 95.4 219.7 99.7 308 0.5 10.4 9.4 18.5 19.8 18s18.5-9.4 18-19.8c-4.5-93.9-42.6-212.1-104.4-324.4-56.6-102.9-127-190.5-198.1-246.8-52.5-41.4-101.8-62.7-143.6-62.7M614.4 719c0-24.9 10.3-49.7 27.9-67.3 17.6-17.6 42.4-27.9 67.3-27.9s49.7 10.3 67.3 27.9c17.6 17.6 27.9 42.4 27.9 67.3s-10.3 49.7-27.9 67.3c-17.6 17.6-42.4 27.9-67.3 27.9s-49.7-10.3-67.3-27.9c-17.6-17.6-27.9-42.3-27.9-67.3"  horiz-adv-x="1024" />

    
    <glyph glyph-name="sousuo" unicode="&#58899;" d="M503.427139 710.182143v2.436955c-3.307297 0-6.527559-0.348137-9.791339-0.478687-0.870341 0.043517-1.566614 0.478688-2.436956 0.478687-1.47958 0-2.698058-0.652756-4.090604-0.783307-162.623263-8.094174-292.695763-135.076962-300.876971-293.740172-0.130551-1.305512-0.783307-2.480473-0.783307-3.829502 0-0.826824 0.435171-1.523097 0.478688-2.349921-0.087034-3.220263-0.478688-6.353491-0.478688-9.617271h2.480473c5.091496-13.838426 18.277166-23.84735 34.247928-23.84735 15.927245 0 29.112915 10.008924 34.204411 23.84735h3.046195c6.266457 128.810505 111.969402 232.032978 244.00017 238.081849v3.046195a35.55344 35.55344 0 0 1 24.456589 33.377587 35.509923 35.509923 0 0 1-24.456589 33.377587z m506.712677-777.519358l-191.170456 184.512346c77.32982 80.985253 124.719901 189.516808 124.719901 309.014661C943.776295 676.630487 735.634185 879.681102 478.970549 879.681102 222.306914 879.681102 14.208321 676.630487 14.208321 426.189792c0-250.440695 208.055076-453.491309 464.762228-453.491309a469.984276 469.984276 0 0 1 287.734818 97.47822l192.954656-186.209511a18.277166 18.277166 0 0 1 25.239896 0l25.239897 24.369555a16.797586 16.797586 0 0 1 0 24.326038zM478.970549 44.284051c-216.105733 0-391.348944 171.022056-391.348943 381.905741s175.199694 381.862224 391.348943 381.862224 391.348944-170.978539 391.348944-381.862224-175.199694-381.905741-391.348944-381.905741z"  horiz-adv-x="1024" />

    
    <glyph glyph-name="guanbi" unicode="&#58896;" d="M1014.503-61.523L569.619 383.36l444.884 444.884c15.34 15.34 15.34 40.909 0 56.25s-40.909 15.34-56.25 0L513.37 439.61 68.485 884.494c-15.34 15.341-40.908 15.341-56.25 0-15.34-15.34-15.34-40.908 0-56.25L457.12 383.362 12.236-61.523C2.009-71.75-3.105-87.091 2.009-102.432 7.122-117.772 22.463-128 37.804-128c10.227 0 20.454 5.114 25.568 10.227l444.884 444.884 444.884-444.884c5.113-5.113 15.34-10.227 25.568-10.227 15.34 0 30.681 10.227 35.795 25.568 10.227 15.34 10.227 30.682 0 40.909z"  horiz-adv-x="1027" />

    
    <glyph glyph-name="zixun1" unicode="&#59050;" d="M766.549333 265.514667h-152.32c-13.952 0-20.096-1.621333-20.096-16.512 0-14.933333 6.144-17.322667 20.053334-17.322667h152.362666c13.952 0 17.28 3.541333 17.28 18.517333 0 14.890667-3.328 15.36-17.28 15.36z m-16.896 169.258666h-135.424c-13.909333 0-20.437333-7.424-20.053333-22.357333 0.384-14.933333 6.186667-11.52 20.053333-11.52h152.32c13.952 0 17.28-3.84 17.28 11.050667s-3.413333 24.32-17.28 22.826666h-16.896zM275.712 214.741333v186.197334h169.258667v-186.197334l-166.186667 1.706667-3.072-1.706667z m169.472 218.154667H276.48c-11.264 0-16.938667-3.669333-24.405333-11.648-7.509333-8.021333-10.496-15.872-10.496-27.946667v-181.504c0-12.373333 2.645333-18.858667 10.666666-26.538666 7.978667-7.68 12.032-4.266667 23.466667-4.352h169.258667c11.52 0 18.304-3.968 25.813333 4.096 7.552 8.106667 8.064 17.365333 8.064 29.738666V384c0 12.288-0.512 29.184-8.064 37.248-7.509333 8.106667-14.08 11.648-25.6 11.648h0.042667z m321.365333 154.197333h-507.733333c-13.952 0-17.28 0.341333-17.28-14.592 0-14.933333 3.328-19.242667 17.237333-19.242666h507.776c13.952 0 17.28 4.352 17.28 19.242666 0 14.933333-3.328 14.592-17.28 14.592z m84.650667-507.733333c-1.536-14.165333-19.157333-33.962667-33.877333-33.877333H208.042667c-13.781333 0.170667-27.861333 20.693333-33.877334 33.834666-1.536 3.370667-2.048 604.373333 0 609.365334 5.845333 14.293333 15.914667 33.493333 33.834667 33.834666h609.322667c18.218667-2.261333 33.408-12.501333 33.877333-33.834666v-609.365334z"  horiz-adv-x="1024" />

    
    <glyph glyph-name="Dyanjing" unicode="&#58882;" d="M387.072 116.736H140.288l-37.888 25.6L4.096 384v29.696l89.088 237.568 76.8-28.672-83.968-222.208 81.92-201.728h191.488l25.6 63.488 37.888 26.624H512v-81.92h-61.44l-25.6-64.512z m496.64 0H636.928l-37.888 25.6-25.6 64.512H512v81.92h89.088L640 262.144l24.576-63.488h191.488l81.92 201.728-83.968 222.208 76.8 28.672 89.088-237.568V384L921.6 142.336zM54.272 462.848h907.264v-75.776H54.272zM137.216 350.208h254.976L333.824 220.16H197.632z m496.64 0h254.976L830.464 220.16H694.272z"  horiz-adv-x="1024" />

    
    <glyph glyph-name="zhuye" unicode="&#58889;" d="M618.775862 41.27633500000002c0 35.763528 0.112564 83.739193-0.031722 117.392664-0.127913 27.329439-5.867638 33.224706-32.721239 33.341363-39.933501 0.163729-79.865979 0.147356-119.79948 0.007163-27.369348-0.095167-32.573883-4.948709-33.008788-33.016974-0.528026-33.605376-0.127913-81.556481-0.127913-116.696816-7.55507-0.871857-12.839423-1.987261-18.131963-2.010797-36.19127-0.152473-72.387657-0.452301-108.574834 0.023536-42.947138 0.563842-53.088102 11.304464-52.78418 53.383838 0.268106 38.038338-0.327458 199.909006 0.715291 237.926878 0.211824 7.574512 4.185322 17.064654 9.6815 22.177092 72.167646 67.110467 144.806014 133.713374 217.58048 200.167902 29.03222 26.5067 63.293535 26.821879 92.369757 0.039909 72.954569-67.186192 145.493675-134.823662 217.712487-202.793706 5.080715-4.780887 8.618285-13.719466 8.765641-20.805862 0.188288-9.190313 0.98749-172.98889 0.288572-243.611344-0.264013-26.41358-13.287631-44.094264-37.71088-45.0091C715.775057 40.02483099999995 668.443052 41.27633500000002 618.775862 41.27633500000002L618.775862 41.27633500000002zM519.040347 761.088334c35.567054 0.071631 54.090942-11.728112 70.727855-27.841092 64.0999-62.062498 128.316457-124.020618 192.453197-186.046277 29.604248-28.632107 59.135842-57.345056 88.679715-86.041632 3.130294-3.045359 6.240121-6.135744 9.129938-9.4093 16.441461-18.62315 18.651802-38.610366 6.087649-54.259788-13.246699-16.492626-39.792285-20.35356-59.555397-8.233522-5.252631 3.225461-9.992585 7.438413-14.502295 11.695367-73.009827 69.01791-146.012492 138.03889-218.874963 207.215412-53.939493 51.209312-74.593905 51.625798-129.080867 1.003863-72.682369-67.530023-144.785547-135.688355-218.039945-202.591091-10.333346-9.441023-25.131377-15.928784-38.941917-19.134803-18.127869-4.204765-33.097816 5.004991-41.544185 21.713534-8.482185 16.776082-5.108345 32.985252 6.852058 46.944172 6.863315 8.014534 14.957667 15.001669 22.695908 22.236444 89.803305 83.959204 179.734524 167.762865 269.385357 251.885797C483.315704 747.865171 503.802294 760.85195 519.040347 761.088334L519.040347 761.088334z"  horiz-adv-x="1024" />

    
    <glyph glyph-name="youjiantou" unicode="&#58890;" d="M78.62272 346.13248h733.55264l-187.32032-180.33152a12.288 12.288 0 0 1 0-17.37216l37.632-37.62688a12.288 12.288 0 0 1 17.37216 0l235.8016 227.01568a8.192 8.192 0 0 1 0.79872 0.72192l1.25952 1.25952 36.37248 35.00544c2.56 2.57024 3.7376 5.9904 3.5584 9.35424a12.23168 12.23168 0 0 1-3.5584 9.37472l-37.632 36.27008a13.37856 13.37856 0 0 1-0.74752 0.68096l-235.84768 227.05152a12.288 12.288 0 0 1-17.37216 0l-37.632-37.632a12.288 12.288 0 0 1 0-17.37216l185.56928-178.6368H78.62784a12.27264 12.27264 0 0 1-12.27776-12.27776V358.4a12.27776 12.27776 0 0 1 12.27776-12.27776l-0.00512 0.01024z"  horiz-adv-x="1024" />

    
    <glyph glyph-name="renzheng1" unicode="&#59301;" d="M539.927273-123.345455c-9.309091-4.654545-18.618182-4.654545-27.927273-4.654545s-18.618182 0-27.927273 4.654545C381.672727-72.145455 69.818182 114.036364 69.818182 332.8v418.909091c0 27.927273 18.618182 51.2 41.890909 60.509091C242.036364 868.072727 363.054545 896 512 896s269.963636-27.927273 400.290909-79.127273c23.272727-9.309091 41.890909-32.581818 41.890909-65.163636v-418.909091c0-218.763636-307.2-404.945455-414.254545-456.145455zM907.636364 751.709091c0 9.309091-4.654545 18.618182-13.963637 23.272727C758.690909 830.836364 646.981818 849.454545 512 849.454545s-246.690909-18.618182-381.672727-74.472727c-9.309091-4.654545-18.618182-13.963636-18.618182-23.272727v-418.909091c0-172.218182 242.036364-344.436364 390.981818-414.254545h18.618182c144.290909 74.472727 390.981818 242.036364 390.981818 414.254545v418.909091zM488.727273 244.363636c-9.309091-9.309091-23.272727-9.309091-32.581818 0L251.345455 449.163636c-9.309091 9.309091-9.309091 23.272727 0 32.581819 9.309091 9.309091 23.272727 9.309091 32.581818 0l186.181818-190.836364 311.854545 316.509091c9.309091 9.309091 23.272727 9.309091 32.581819 0 9.309091-9.309091 9.309091-23.272727 0-32.581818L488.727273 244.363636z"  horiz-adv-x="1024" />

    
    <glyph glyph-name="huan" unicode="&#59000;" d="M512-95.702198c-64.743715 0-127.569214 12.688164-186.734087 37.711676-57.126241 24.162542-108.424379 58.747031-152.468698 102.790146-44.043114 44.043114-78.6264 95.341253-102.788941 152.468698-25.023512 59.163668-37.711676 121.990371-37.711676 186.734086S44.984762 511.571622 70.009478 570.734087c24.162542 57.126241 58.745827 108.424379 102.788942 152.468698 44.044318 44.043114 95.341253 78.6264 152.468697 102.788941C384.430786 851.016442 447.256285 863.704606 512 863.704606c64.743715 0 127.569214-12.688164 186.732883-37.711676 57.126241-24.162542 108.424379-58.745827 152.468697-102.788941 44.043114-44.044318 78.6264-95.341253 102.788942-152.468698 25.023512-59.163668 37.711676-121.989167 37.711676-186.732883s-12.688164-127.569214-37.711676-186.732882c-24.162542-57.127445-58.745827-108.425584-102.788942-152.468698-44.044318-44.043114-95.342457-78.627604-152.468697-102.790146-59.162464-25.024716-121.989167-37.71288-186.732883-37.71288z m0 887.157601C287.327857 791.455403 104.544597 608.673348 104.544597 384.002408c0-224.672143 182.783259-407.455403 407.455403-407.455403 224.670939 0 407.454199 182.783259 407.454199 407.455403 0 224.669735-182.783259 407.452995-407.454199 407.452995zM416.474512 531.878465v-46.905387h-47.99635v-95.9927l49.087313 14.181315 7.090055-46.36111-56.177368-17.452999v-141.260438c0-25.635221-4.909333-39.814128-19.089444-47.99635-14.725592-8.725295-35.996961-10.36174-68.722238-10.36174-1.63524 13.090351-7.635537 35.998166-14.18011 49.63159 19.634925-0.545481 38.178887-0.545481 44.177979-0.545481s8.7265 2.18313 8.7265 9.273185V324.621992l-54.540924-16.362036-11.998184 48.540627c19.089444 4.365056 41.450572 10.910834 66.540312 17.998481v110.174014h-59.995738v46.905387h59.995738V637.143146h49.087313v-105.264681h47.995146z m196.893529-233.980249c31.087628-53.996646 85.628552-97.630348 148.897178-118.355032-10.362944-9.816258-25.08974-27.815943-31.634313-39.814128-62.721942 23.998777-115.080939 71.449645-149.988142 130.897494-26.179499-47.450868-73.630367-94.353847-158.714642-134.171587-7.635537 10.364148-22.90661 26.726184-34.905998 35.998166 88.355959 37.089129 131.989661 81.811385 154.351994 125.446291H417.019993v43.631294h37.087925V464.24719l-4.363852-3.817166c-7.090055 11.453907-22.361128 28.906906-33.269554 36.542443 51.813516 40.906295 87.811682 96.538181 106.901125 140.716161l51.268035-8.7265c-5.999092-13.090351-12.54487-25.088536-19.634925-38.178887h108.537569l8.181019 2.727407 33.269553-22.361128c-13.089147-22.362333-31.634314-47.450868-51.268034-69.813201h63.267423v-159.805605h34.905998v-43.631294H613.368041zM528.283766 548.240501c-10.908426-15.816555-23.453296-31.634314-37.087924-46.905387h106.35444c11.999389 14.18011 25.08974 31.087628 34.905998 46.905387h-104.172514z m28.361425-206.710991c5.453611 22.361128 5.999092 43.088221 5.999092 61.632183v58.35809h-60.540016v-119.990273h54.540924z m109.628533 119.991477h-54.542128v-58.903571c0-18.543962-1.089759-39.271054-5.453611-61.086702h59.995739v119.990273z"  horiz-adv-x="1024" />

    
    <glyph glyph-name="liuyan" unicode="&#58934;" d="M511.8464 736.6656c-193.11104 0-349.57824-135.00928-349.57824-301.5424s156.53888-301.55776 349.57824-301.55776V37.376l239.54944 178.06848a283.12064 283.12064 0 0 1 110.0288 219.6992c0 166.51264-156.53376 301.52192-349.57824 301.52192z m-174.06976-355.4304a45.88544 45.88544 0 1 0-0.01024 91.77088 45.88544 45.88544 0 0 0 0.01024-91.77088h-0.02048 0.02048z m174.06976 0c-25.34912 0-45.9008 20.51072-45.92128 45.85984 0 25.34912 20.54144 45.9008 45.89056 45.91104s45.89568-20.54144 45.89568-45.89056c0-25.32864-20.52608-45.88032-45.86496-45.88032z m173.3376 0a45.89056 45.89056 0 0 0-45.88032 45.88032c0.0256 25.34912 20.57216 45.9008 45.91616 45.89056a45.88032 45.88032 0 0 0 45.86496-45.89056c0.01024-25.32864-20.52096-45.88032-45.85472-45.88032h-0.06144 0.01536z"  horiz-adv-x="1024" />

    
    <glyph glyph-name="zhuanli" unicode="&#58880;" d="M273.866137 520.689162l216.060342 2.520366 0.467487-40.651052-216.060342-2.520366zM274.191346 379.121874h282.118301v-40.651052H274.191346zM274.191346 236.233426h180.490671v-40.651052h-180.490671zM100.611354-87.348948V854.129416h484.763795v-243.499801h245.735609v-163.417229l-1.016276-1.422787h40.854307l0.813021 1.219532V651.280667h-0.609766l-28.455736-28.455736-28.658992 28.455736h-188.011115v186.994839l-29.065502 28.862247L624.400159 894.780468H59.960302v-1022.780468h400.412862v40.651052H100.611354zM626.026201 838.275506l188.011115-186.994839h57.114728l0.203256 0.203255L625.61969 896l-1.219531-1.219532h1.626042v-56.504962zM842.696308 622.824931l28.455736 28.455736H814.037316l28.658992-28.455736zM626.026201 838.275506V894.780468h-1.626042l-27.43946-27.642715 29.065502-28.862247zM779.280667 143.955538a79.269551 79.269551 0 1 0 79.269551 79.269551 79.269551 79.269551 0 0 0-79.269551-79.269551z m0 117.684795a38.618499 38.618499 0 1 1 38.618499-38.618499 38.618499 38.618499 0 0 1-38.618499 38.415244zM779.280667 50.864629A173.783247 173.783247 0 1 0 953.063914 225.257642a173.986503 173.986503 0 0 0-173.783247-174.393013z m0 306.915442A133.132195 133.132195 0 1 1 912.412862 225.257642a133.335451 133.335451 0 0 1-133.132195 132.319174zM964.039698-127.593489l-183.336244 98.985311-186.181818-98.578801 46.342199 264.435093 40.041286-6.910679-32.114331-182.726478 132.115919 69.919809 128.66058-69.513299-31.911076 182.319968 40.041286 6.910679 46.342199-264.841603z"  horiz-adv-x="1024" />

    
    <glyph glyph-name="shilibiao" unicode="&#58883;" d="M781.652-27.587H250.244c-31.198 0-56.571 25.373-56.571 56.572V771.014c0 31.198 25.373 56.571 56.571 56.571h531.279c31.198 0 56.571-25.373 56.571-56.571v-742.03c0-31.198-25.373-56.57-56.442-56.57zM250.244 799.235c-15.534 0-28.22-12.687-28.22-28.221v-742.03c0-15.534 12.686-28.22 28.22-28.22h531.279c15.534 0 28.22 12.686 28.22 28.22v742.03c0 15.534-12.686 28.22-28.22 28.22H250.244zM450.768 535.02h133.856v-24.467H450.768z m0 60.196h133.856v-24.467H450.768zM475.264 589.709v-133.856h-24.467V589.71zM450.768 472.493h133.856v-24.466H450.768zM447.71 325.317H347.382V343.7h100.326z m0-42.568H347.382v18.382h100.326z m0 86.764H347.382v18.382h100.326zM429.374 287.33V387.657h18.382V287.33z m-96.164-75.572v-72.883h-12.169v72.883z m33.576 0.048v-72.883h-12.168v72.883z m-65.08-0.095v-72.882h-12.169V211.71zM366.724 199.49H289.44v12.168h77.284z m143.697-58.572v72.883h12.168v-72.883z m-33.578 0.05V213.85h12.169v-72.883z m65.082 0.033v72.882h12.168v-72.882zM476.789 153.13h77.283v-12.168H476.79z m263.755 19.22h-72.882v12.17h72.882z m0-33.624h-72.882v12.17h72.882z m0 65.047h-72.882v12.169h72.882zM728.385 138.755v77.284h12.168v-77.284zM628.114 284.287V384.614h18.382v-100.327z m-42.58-0.01V384.603h18.382v-100.326z m86.814 0.05V384.654h18.382v-100.327zM590.19 302.65h100.327v-18.383H590.19z"  horiz-adv-x="1024" />

    
    <glyph glyph-name="chakangengduo" unicode="&#59004;" d="M512 831.845c-246.939 0-447.845-200.9-447.845-447.845S265.061-63.845 512-63.845 959.845 137.055 959.845 384 758.939 831.845 512 831.845z m0-828.847c-210.084 0-381.002 170.918-381.002 381.002S301.916 765.002 512 765.002 893.002 594.084 893.002 384 722.084 2.998 512 2.998zM505.081 520.792l103.371-103.371H308.13v-66.842h300.322L505.081 247.208l47.26-47.26L736.392 384 552.341 568.052z"  horiz-adv-x="1024" />

    
    <glyph glyph-name="QQ" unicode="&#59041;" d="M218.77 329.99C194 268.3 189.9 209.48 209.85 198.55c13.8-7.59 35.29 9.77 55.51 41.33 8.03-34.57 27.8-65.59 56.09-90.66-29.61-11.54-49.02-30.4-49.02-51.72 0-35.12 52.41-63.47 117.03-63.47 58.31 0 106.62 23.03 115.53 53.36h13.87c9.09-30.33 57.29-53.36 115.67-53.36 64.7 0 117.03 28.35 117.03 63.47 0 21.32-19.37 40.04-49.05 51.72 28.18 25.08 48.09 56.09 56.06 90.66 20.22-31.56 41.6-48.92 55.48-41.33 20.05 10.93 16.05 69.76-8.95 131.44-19.54 48.3-46.02 83.97-66.21 91.96 0.28 2.94 0.51 6.18 0.51 9.29 0 18.72-4.99 36-13.49 50.08 0.16 1.13 0.16 2.18 0.16 3.31 0 8.65-1.94 16.67-5.29 23.61-5.09 125.74-82.87 225.73-208.82 225.73-125.92 0-203.8-99.99-208.89-225.73-3.28-7.04-5.3-15.1-5.3-23.71 0-1.12 0-2.18 0.14-3.31-8.33-13.97-13.32-31.25-13.32-50.05 0-3.14 0.17-6.28 0.37-9.36-20.11-7.92-46.69-43.51-66.19-91.82z"  horiz-adv-x="1024" />

    
    <glyph glyph-name="zuobian" unicode="&#58881;" d="M716.29873657 399.4536438c2.04263305-2.109375 3.6411438-4.50714112 4.68511963-7.08288575 3.24151612-8.015625 1.64300537-17.5630188-4.86227417-24.06912231-0.02224732-0.02224732-0.06674195-0.02224733-0.08898925-0.06674194L339.32046508-8.477233879999972c-8.68139648-8.68139648-22.71450805-8.68139648-31.41897582 0-8.65914917 8.65914917-8.65914917 22.71450805 0 31.3967285L668.98199463 384.02224732l-361.10275268 361.08050536c-8.68139648 8.68139648-8.65914917 22.75900268 0 31.39672852 8.7036438 8.68139648 22.71450805 8.68139648 31.41897583 0l376.77886962-376.75662233s0.02224732 0 0.02224732-0.0222473 0.02224732-0.02224732 0.02224731-0.02224731c0.06674195-0.06674195 0.08898926-0.17797852 0.17797852-0.24389648z"  horiz-adv-x="1024" />

    
    <glyph glyph-name="renxiangmeiyan-meiyan-mianbuzhongsu-bizi-bijian" unicode="&#58913;" d="M636.78 61.864c-0.746 0-1.506 0.044-2.253 0.117-12.068 1.23-20.845 11.996-19.602 24.05 1.565 15.418-15.126 24.59-25.234 28.686-5.486 2.238-11.118 4.433-16.823 6.656-56.496 22.09-126.8 49.562-128.527 131.38-1.14 53.745 32.695 92.057 62.552 125.85 3.657 4.139 7.27 8.235 10.781 12.316 20.042 23.26 40.024 46.563 60.007 69.881l36.805 42.964c24.547 28.672 49.094 57.344 73.714 85.943 33.909 39.424 32.49 74.854 31.539 98.319-0.146 3.862-0.278 7.387-0.278 10.488 0 12.127 9.816 21.943 21.943 21.943 12.112 0 21.943-9.816 21.943-21.943 0-2.574 0.117-5.5 0.248-8.733 1.068-26.624 3.058-76.156-42.13-128.702-24.605-28.57-49.123-57.212-73.64-85.855l-36.82-42.994a54114.178 54114.178 0 0 0-60.065-69.939c-3.643-4.227-7.388-8.47-11.147-12.727-26.931-30.486-52.356-59.29-51.58-95.89 1.038-48.874 40.506-67.92 100.63-91.429 5.88-2.296 11.688-4.564 17.364-6.86 36.03-14.629 55.603-42.218 52.37-73.801-1.156-11.308-10.679-19.72-21.797-19.72z m106.75 86.372c-7.052 0-13.986 3.394-18.228 9.684-12.156 18.051-47.967 39.117-61.455 47.045l-4.198 2.487c-10.386 6.232-13.765 19.72-7.534 30.091 6.247 10.386 19.734 13.795 30.106 7.534l3.877-2.282c28.628-16.838 59.991-37.171 75.615-60.358 6.773-10.064 4.096-23.683-5.954-30.456a21.8 21.8 0 0 0-12.23-3.745zM386.186 410.179c12.112 0 21.943-9.815 21.943-21.943v-84.845c0-12.113-9.83-21.943-21.943-21.943h-84.846c-12.112 0-21.943 9.83-21.943 21.943 0 12.112 9.83 21.943 21.943 21.943h31.876l-63.473 63.473c-8.573 8.572-8.573 22.455 0 31.027 8.557 8.572 22.454 8.572 31.027 0l63.473-63.473v31.875c0 12.128 9.816 21.943 21.943 21.943z"  horiz-adv-x="1024" />

    
    <glyph glyph-name="keji1" unicode="&#59049;" d="M73.951 495.055a66.61 66.61 0 0 1 91.247-14.6 67.066 67.066 0 0 1 17.793 85.772L469.961 780.2a66.61 66.61 0 0 1 87.14-7.3 75.278 75.278 0 0 1 11.406 10.95l270.546-224.01a66.61 66.61 0 0 1 13.231-86.228 67.979 67.979 0 0 1 93.528 11.406 66.61 66.61 0 0 1-7.756 94.44 67.522 67.522 0 0 1-87.597-3.194L576.719 804.38a68.891 68.891 0 0 1-9.124 65.698 66.61 66.61 0 0 1-93.071 12.318 67.522 67.522 0 0 1-17.794-85.772L172.954 582.651a66.154 66.154 0 0 1-87.14 7.3 67.979 67.979 0 0 1-11.863-94.896zM73.039 202.154a66.61 66.61 0 0 1 93.528-14.6 67.066 67.066 0 0 1 17.793 85.772L469.96 487.299a66.61 66.61 0 0 1 87.14-7.3 78.016 78.016 0 0 1 11.406 10.95l266.44-223.554a66.154 66.154 0 0 1 13.23-86.228 67.979 67.979 0 0 1 94.897 10.037 66.61 66.61 0 0 1-7.756 94.44 67.522 67.522 0 0 1-87.596-2.737l-273.74 228.116a68.891 68.891 0 0 1-6.387 65.241 66.61 66.61 0 0 1-93.528 14.6 67.522 67.522 0 0 1-17.793-87.14L172.498 289.75a66.154 66.154 0 0 1-86.685 6.844 67.522 67.522 0 0 1-12.774-94.44zM947.637 566.683a66.61 66.61 0 0 1-91.247 14.6 67.066 67.066 0 0 1-21.443-86.228L551.171 281.082a66.61 66.61 0 0 1-87.14 7.3 64.785 64.785 0 0 1-10.95-10.95l-269.178 224.01a66.154 66.154 0 0 1-13.23 86.228 67.979 67.979 0 0 1-94.897-11.406 66.61 66.61 0 0 1 7.3-91.246 67.522 67.522 0 0 1 87.597 0L444.413 256.9a68.891 68.891 0 0 1 9.124-65.697 66.154 66.154 0 0 1 111.32 71.172L848.635 476.35a66.61 66.61 0 0 1 86.684-6.843 67.522 67.522 0 0 1 12.319 97.177zM948.093 273.782a66.154 66.154 0 0 1-113.146-71.172L551.171-11.363a66.61 66.61 0 0 1-87.14 7.3 73.91 73.91 0 0 1-10.95-10.95l-269.178 224.01a66.154 66.154 0 0 1-13.23 86.228 67.979 67.979 0 0 1-94.897-10.037 66.61 66.61 0 0 1 7.756-94.44 67.522 67.522 0 0 1 87.597 2.737l273.74-228.116a68.891 68.891 0 0 1 9.124-65.698 66.154 66.154 0 0 1 111.32 71.173L849.09 184.817a66.61 66.61 0 0 1 87.14-7.3 67.979 67.979 0 0 1 11.863 96.265z"  horiz-adv-x="1024" />

    
    <glyph glyph-name="yanjing1" unicode="&#58966;" d="M951.61 312.54l-0.96-0.29 0.95 0.33c-1.16 4.35-28.77 107.79-70.52 209.56-58.83 143.4-117.66 217.81-174.87 221.16-41.07 2.42-71.09 4.16-89.23 5.18l-1.81 0.1c-6.46 0.36-11.56 0.65-15.38 0.52l0.02-0.7-0.04 0.7c-9.55-0.26-12.78-2.95-13.3-11.05l-0.03-0.44 11.08-11.48-0.02-1.02h0.97l1.53-1.79v1.72c5.16-0.26 25.5-1.37 104.79-6.03 19.75-1.16 40.92-14.92 62.93-40.9 19.2-22.67 39.19-54.81 59.4-95.51 42.79-86.17 75.21-187.71 87.76-229.51a63.215 63.215 0 0 1-24.43 4.87H626.58c-35.23 0-63.9-28.67-63.9-63.9v-28.56c-16.55 3.69-44.9 9.53-58.1 9.53-13.19 0-41.54-5.85-58.09-9.53v28.56c0 35.23-28.67 63.9-63.9 63.9H118.72a63.2 63.2 0 0 1-24.12-4.75c12.55 41.79 44.96 143.31 87.75 229.46 20.2 40.68 40.18 72.79 59.38 95.45 22 25.96 43.16 39.71 62.91 40.88 80.16 4.72 100.07 5.8 104.95 6.04l0.01-0.08 0.9 0.06c10.15 0.7 12.61 8.48 12.46 13.01-0.42 6.6-2.57 9.59-8.54 10.62l1.91 0.45h-8.57c-4.08 0-9.28-0.3-15.3-0.64-15.3-0.86-42.82-2.46-89.24-5.18-57.2-3.36-116.04-77.77-174.87-221.16C90.14 428.97 63.77 334.4 58.9 316.48a63.426 63.426 0 0 1-4.06-22.4v-114.91c0-50.45 41.04-91.49 91.49-91.49h177.13c67.84 0 123.04 55.2 123.04 123.04v29.85c11.45 2.61 45.66 10.15 58.09 10.15 12.44 0 46.65-7.54 58.1-10.15v-29.85c0-67.84 55.2-123.04 123.04-123.04h177.13c50.45 0 91.49 41.04 91.49 91.49V294.08c-0.01 6.25-0.93 12.46-2.74 18.46zM587 294.08c0 21.82 17.75 39.57 39.57 39.57h263.86c21.82 0 39.58-17.75 39.58-39.57v-114.91c0-37.04-30.13-67.17-67.16-67.17H685.72c-54.43 0-98.72 44.29-98.72 98.72v83.36z m-164.84-84.36c-0.54-53.98-44.61-97.72-98.72-97.72H146.31c-37.03 0-67.16 30.13-67.16 67.17V294.08c0 3.85 0.56 7.67 1.67 11.36l0.27-0.07 0.9 3.42c6.08 15.11 20.49 24.86 36.73 24.86h263.86c21.82 0 39.57-17.75 39.57-39.57l0.01-84.36z"  horiz-adv-x="1024" />

    
    <glyph glyph-name="changjianwenti" unicode="&#58922;" d="M761.7 163.6a36.2 36.2 0 1 1 72.4 0 36.2 36.2 0 1 1-72.4 0zM794.1 225.8c-15.4 0-27.8 12.5-27.8 27.8 0 26.7 0.9 64.6 5.9 76.1 9 20.7 29.8 32.5 52 44.9 34.4 19.4 56.9 34.3 56.9 63.4 0 45.9-37.3 83.2-83.2 83.2-38.5 0-71-26.3-80.4-62-3.3-12.4-14.3-21.2-27.2-21.2-18.2 0-31.7 17.1-27.2 34.7C678.9 534 735.4 579 801.8 577.2c74-2 133.7-62.5 135.3-136.6 1.4-65.8-50.9-95.3-85.4-114.7-10-5.6-25-14.1-28.1-18.6-2-5.7-1.9-32-1.6-53.2 0.2-15.6-12.3-28.3-27.9-28.3zM719.1-60.6H236.9c-81.7 0-148 66.3-148 148V680.3c0 81.7 66.3 148 148 148h482.2c81.7 0 148-66.3 148-148v-23c0-15.5-12.5-28-28-28s-28 12.5-28 28v23c0 24.4-9.6 47.5-27 65-17.4 17.4-40.5 27-65 27H236.9c-24.4 0-47.5-9.6-65-27-17.4-17.4-27-40.5-27-65v-592.9c0-24.4 9.6-47.5 27-65 17.4-17.4 40.5-27 65-27h482.2c38 0 72.6 24 86.1 59.7 1.4 3.6 2.5 7.3 3.4 11 3 12.5 14.3 21.2 27.2 21.2 18.1 0 31.5-17 27.2-34.6-1.4-5.9-3.2-11.8-5.4-17.5-10.5-27.8-29-51.7-53.4-68.9-25.1-17.6-54.5-26.9-85.1-26.9zM674.4 575.8H281.6c-15.5 0-28 12.5-28 28s12.5 28 28 28h392.8c15.5 0 28-12.5 28-28 0-15.4-12.5-28-28-28zM506.1 379.4H281.6c-15.5 0-28 12.5-28 28s12.5 28 28 28h224.5c15.5 0 28-12.5 28-28s-12.5-28-28-28z"  horiz-adv-x="1024" />

    


  </font>
</defs>
</svg>
